<svg xmlns="http://www.w3.org/2000/svg" xmlns:xlink="http://www.w3.org/1999/xlink" width="30" height="30" viewBox="0 0 30 30">
  <defs>
    <clipPath id="clip-lead-users">
      <rect width="30" height="30"/>
    </clipPath>
  </defs>
  <g id="lead-users" clip-path="url(#clip-lead-users)">
    <path id="Union_105" data-name="Union 105" d="M8966,11985v-2a2,2,0,0,0-2-2h-5a2,2,0,0,0-2,2v2a1,1,0,1,1-2,0v-2a4,4,0,0,1,4-4h5a4,4,0,0,1,4,4v2a1,1,0,1,1-2,0Zm-17,0v-2a2,2,0,0,0-2-2h-5a2,2,0,0,0-2,2v2a1,1,0,1,1-2,0v-2a4,4,0,0,1,4-4h5a4,4,0,0,1,4,4v2a1,1,0,1,1-2,0Zm9-10.5a3.5,3.5,0,1,1,3.5,3.5A3.5,3.5,0,0,1,8958,11974.5Zm2,0a1.5,1.5,0,1,0,1.5-1.5A1.5,1.5,0,0,0,8960,11974.5Zm-19,0a3.5,3.5,0,1,1,3.5,3.5A3.5,3.5,0,0,1,8941,11974.5Zm2,0a1.5,1.5,0,1,0,1.5-1.5A1.5,1.5,0,0,0,8943,11974.5Zm15-5.5v-1a2,2,0,0,0-2-2h-5a2,2,0,0,0-2,2v1a1,1,0,1,1-2,0v-1a4.007,4.007,0,0,1,4-4h5a4,4,0,0,1,4,4v1a1,1,0,1,1-2,0Zm-8-9.5a3.5,3.5,0,1,1,3.5,3.5A3.5,3.5,0,0,1,8950,11959.5Zm2,0a1.5,1.5,0,1,0,1.5-1.5A1.5,1.5,0,0,0,8952,11959.5Z" transform="translate(-8938 -11956)" fill="#fff"/>
  </g>
</svg>
